<?xml version="1.0" encoding="utf-8"?>
<!-- Generator: Adobe Illustrator 19.0.0, SVG Export Plug-In . SVG Version: 6.00 Build 0)  -->
<svg version="1.1" id="Layer_1" xmlns="http://www.w3.org/2000/svg" xmlns:xlink="http://www.w3.org/1999/xlink" x="0px" y="0px"
	 viewBox="0 0 50 50" style="enable-background:new 0 0 50 50;" xml:space="preserve">
<style type="text/css">
	.st0{fill:#FFFFFF;}
</style>
<g id="Icon_13_">
	<g id="XMLID_4_">
		<path class="st0" d="M25,36.5c-5.5,0-10-4.6-10-10.3s4.5-10.3,10-10.3c5.5,0,10,4.6,10,10.3S30.5,36.5,25,36.5z M25,19.9
			c-3.3,0-6,2.8-6,6.3c0,3.5,2.7,6.3,6,6.3s6-2.8,6-6.3C31,22.7,28.3,19.9,25,19.9z"/>
	</g>
	<g id="XMLID_1_">
		<path class="st0" d="M46,44H4c-1.1,0-2-0.9-2-2V14c0-1.1,0.9-2,2-2h9.9l2.4-4.9c0.3-0.7,1-1.1,1.8-1.1h14c0.8,0,1.5,0.4,1.8,1.1
			l2.4,4.9H46c1.1,0,2,0.9,2,2v28C48,43.1,47.1,44,46,44z M6,40h38V16h-8.9c-0.8,0-1.5-0.4-1.8-1.1L30.9,10H19.3l-2.4,4.9
			c0,0.1-0.1,0.2-0.1,0.3c-0.2,0.2-0.4,0.4-0.6,0.6c-0.2,0.1-0.5,0.2-0.8,0.3c-0.1,0-0.2,0-0.3,0H6V40z"/>
	</g>
</g>
</svg>
