<?xml version="1.0" encoding="utf-8"?>
<!-- Generator: Adobe Illustrator 19.0.0, SVG Export Plug-In . SVG Version: 6.00 Build 0)  -->
<svg version="1.1" id="Layer_1" xmlns="http://www.w3.org/2000/svg" xmlns:xlink="http://www.w3.org/1999/xlink" x="0px" y="0px"
	 viewBox="0 0 50 50" style="enable-background:new 0 0 50 50;" xml:space="preserve">
<style type="text/css">
	.st0{fill:#FFFFFF;}
</style>
<g id="Icon_2_">
	<g>
		<path id="XMLID_2_" class="st0" d="M25,46.7L25,46.7c-0.8,0-1.6-0.4-2.1-1L6,25.6c-0.1-0.1-0.2-0.2-0.2-0.3
			c-0.1-0.1-0.2-0.3-0.3-0.4l-0.4-0.4c-0.2-0.2-0.3-0.5-0.4-0.7c-0.7-1.2-1.2-2.5-1.5-3.9C3.1,19,3,18.2,3,17.3
			C3,10.4,8.4,4.7,15.1,4.7c4,0,7.7,2.1,9.9,5.4c2.2-3.3,5.9-5.4,9.9-5.4c6.7,0,12.1,5.6,12.1,12.6c0,0.9-0.1,1.7-0.2,2.5
			c-0.3,1.4-0.8,2.7-1.5,4c-0.1,0.2-0.2,0.4-0.3,0.6l-0.5,0.7c-0.1,0.1-0.1,0.2-0.2,0.2c-0.1,0.1-0.2,0.2-0.3,0.3L27.1,45.8
			C26.6,46.4,25.8,46.7,25,46.7z M8.6,22.4L25,42l16.5-19.7c0.7-1,1.1-2.1,1.4-3.2c0.1-0.6,0.2-1.2,0.2-1.8c0-4.7-3.6-8.6-8.1-8.6
			c-3.6,0-6.8,2.3-7.8,6c-0.2,0.9-1,1.3-1.9,1.3c0,0,0,0,0,0l-0.4,0.2c-0.9,0-1.7-0.5-1.9-1.4c-1-3.6-4.2-6.1-7.8-6.1
			c-4.5,0-8.1,3.9-8.1,8.6c0,0.6,0.1,1.2,0.2,1.8C7.4,20.3,7.9,21.4,8.6,22.4z"/>
	</g>
</g>
</svg>
