<?xml version="1.0" encoding="utf-8"?>
<!-- Generator: Adobe Illustrator 19.0.0, SVG Export Plug-In . SVG Version: 6.00 Build 0)  -->
<svg version="1.1" id="Layer_1" xmlns="http://www.w3.org/2000/svg" xmlns:xlink="http://www.w3.org/1999/xlink" x="0px" y="0px"
	 viewBox="0 0 50 50" style="enable-background:new 0 0 50 50;" xml:space="preserve">
<style type="text/css">
	.st0{fill:#F065A5;}
	.st1{fill:#6C757A;}
	.st2{fill:#F49AC1;}
	.st3{fill:#FFFFFF;}
	.st4{fill:#414042;}
	.st5{fill:#00AEEF;}
</style>
<g id="XMLID_75_">
	<path id="XMLID_14_" class="st0" d="M19.6,41.3c0,2.7,2.4,4.9,5.4,4.9s5.4-2.2,5.4-4.9"/>
</g>
<g id="XMLID_74_">
	<polygon id="XMLID_13_" class="st1" points="37.7,5.9 34.3,6.1 27.2,12.8 26.6,12.7 26.6,12.5 24.9,12.6 23.2,12.5 23.2,12.7 
		22.5,12.8 15.5,6.1 12.1,5.9 10.1,9 10.7,19.9 10.8,23.6 15,21.3 19.7,22.5 22,24.9 22.9,29.1 23.2,29.1 23.2,29.2 24.9,29.2 
		26.6,29.2 26.6,29.1 26.9,29.1 27.8,24.9 30.1,22.5 34.8,21.3 39,23.6 39.1,19.9 39.7,9 	"/>
</g>
<g id="XMLID_73_">
	<path id="XMLID_12_" class="st2" d="M19.1,14l-2.9-2.9c-1-1-2.8-0.3-2.8,1.2v5.7C15,16.2,16.9,14.9,19.1,14z"/>
</g>
<g id="XMLID_72_">
	<polygon id="XMLID_11_" class="st3" points="41,30 40.7,25.9 39.9,24.7 38.5,22.7 33.1,21.6 28,25.2 26.3,29 24.9,29.5 23.5,29 
		21.8,25.2 16.7,21.6 11.3,22.7 9.9,24.7 9.1,25.9 8.8,30 7.6,32.5 9.3,33.2 9.3,36.4 12.1,34.6 15.6,39.4 20.7,42 24.4,41.3 
		24.9,39.5 25.4,41.3 29,42 34.2,39.4 37.7,34.6 40.5,36.4 40.5,33.2 42.1,32.5 	"/>
</g>
<g id="XMLID_71_">
	<path id="XMLID_10_" class="st2" d="M30.7,14l2.9-2.9c1-1,2.8-0.3,2.8,1.2v5.7C34.8,16.2,32.8,14.9,30.7,14z"/>
</g>
<g id="XMLID_62_">
	<path id="XMLID_37_" class="st4" d="M43.6,32.4l-1.7-3.3c0-2.3-0.5-4.6-1.2-6.6l0-14c0-1.8-1-3.4-2.6-4.1c-1.7-0.8-3.7-0.4-5,0.9
		l-6.4,6.4c-0.6-0.1-1.1-0.1-1.7-0.1c-0.7,0-1.3,0-1.9,0.1l-6.3-6.3c-1.2-1.2-3.1-1.7-4.8-1.1c-1.8,0.7-2.9,2.3-2.9,4.2v14.2
		c-0.8,2-1.2,4.2-1.2,6.5l-1.7,3.3c-0.1,0.2-0.2,0.5-0.1,0.7c0.1,0.6,0.6,1,1.1,1H8l0,2.5c0,0.3,0.1,0.6,0.3,0.8
		c0.4,0.4,1,0.5,1.5,0.2l1.8-1.2c1,1.7,3.3,4.6,7.3,6.3c0.7,2.5,3.2,4.4,6.1,4.4c3,0,5.4-1.9,6.1-4.4c3.9-1.7,6.1-4.6,7.1-6.3
		l1.8,1.2c0.3,0.2,0.6,0.3,0.9,0.2c0.6-0.1,1-0.6,1-1.1v-2.6h0.8c0.6,0,1.1-0.4,1.1-1C43.8,32.9,43.7,32.6,43.6,32.4z M32.8,13.5
		l1.6-1.6c0.2-0.2,0.4-0.2,0.5-0.1c0.1,0,0.3,0.2,0.3,0.5V15C34.5,14.4,33.7,13.9,32.8,13.5z M34.7,6.9c0.4-0.4,0.9-0.6,1.5-0.6
		c0.3,0,0.7,0.1,1,0.2c0.7,0.4,1.2,1.1,1.2,2l0,9.8c-0.3-0.4-0.5-0.7-0.8-1l0-4.9c0-1-0.5-1.9-1.3-2.4c-1.1-0.7-2.6-0.5-3.5,0.4
		l-2.2,2.2c-0.3-0.1-0.7-0.2-1.1-0.3L34.7,6.9z M22.1,14.3c0.2-0.1,0.4-0.1,0.7-0.1c0.1,0,0.2,0,0.4-0.1l0.2,0
		c0.5-0.1,1-0.1,1.5-0.2c0.5,0,1.1,0.1,1.6,0.2l0.3,0c3.9,0.7,7.4,2.9,9.8,6c0.3,0.4,0.5,0.7,0.7,1.1c-1-0.4-2.1-0.7-3.3-0.7
		c-4.3,0-7.9,3.5-7.9,7.8h-2.3c-0.1-4.3-3.6-7.8-7.9-7.8c-1.2,0-2.3,0.2-3.3,0.7c0.1-0.1,0.2-0.3,0.3-0.4c0.1-0.1,0.1-0.2,0.2-0.2
		c0.1-0.1,0.1-0.2,0.2-0.3C15.3,17.3,18.5,15.2,22.1,14.3C22.1,14.3,22.1,14.3,22.1,14.3z M14.6,15.1v-2.9c0-0.3,0.2-0.4,0.3-0.5
		c0,0,0.1,0,0.2,0c0.1,0,0.2,0,0.3,0.1l1.6,1.6C16.2,14,15.3,14.5,14.6,15.1z M11.4,8.5c0-0.8,0.4-1.6,1.2-2c0.3-0.2,0.6-0.2,1-0.2
		c0.5,0,1.1,0.2,1.5,0.6l5.3,5.3c-0.4,0.1-0.7,0.2-1.1,0.3l-2.2-2.2c-0.7-0.7-1.7-1-2.6-0.8c-1.3,0.3-2.2,1.4-2.2,2.7v5.1
		c-0.3,0.3-0.6,0.7-0.8,1L11.4,8.5z M24.9,44L24.9,44c0.2,0,1.3-0.1,1.3-0.1c0.9-0.1,1.8-0.3,2.7-0.5c-0.8,1.2-2.2,1.9-3.9,1.9
		c-1.6,0-3-0.7-3.8-1.9c0.8,0.2,1.6,0.3,2.5,0.4 M40.7,31.8c-0.6,0-1.2,0.5-1.2,1.2v1.6l-1.1-0.7c-0.1-0.1-0.2-0.1-0.4-0.2
		c-0.6-0.1-1.1,0.2-1.3,0.7c-0.1,0.2-1.8,4.1-6.4,6.2c-3.6,1.4-5.2-0.1-4.7-1.4l0.6-0.9c0,0,0,0,0,0l1.7-2.6l0,0l0.1-0.2
		c0.5-0.8,0-1.8-1-1.8h-1.2h-0.2h-0.4h-0.7h-0.4h-0.2h-1.2c-0.9,0-1.5,1-1,1.8l0.1,0.2l0,0l1.7,2.6c0,0,0,0,0,0l0.6,0.9
		c0.5,1.3-1.1,2.8-4.7,1.4c-4.6-2.1-6.3-5.9-6.4-6.2c-0.2-0.5-0.7-0.8-1.3-0.7c-0.1,0-0.3,0.1-0.4,0.2l-1.1,0.7v-1.6
		c0-0.6-0.5-1.2-1.2-1.2h0l1-1.9c0.1-0.2,0.1-0.4,0.1-0.5c0-0.4,0-0.8,0.1-1.2h0c0-3,2.4-5.3,5.5-5.3c3.1,0,5.6,2.5,5.6,5.6l0,2.2
		h1.8h3.4h1.8l0-2.2c0-3.1,2.5-5.6,5.6-5.6c3.2,0,5.5,2.3,5.5,5.3h0c0,0.4,0,0.8,0.1,1.2c0,0.2,0,0.4,0.1,0.5L40.7,31.8L40.7,31.8z"
		/>
</g>
<g id="XMLID_57_">
	<g id="XMLID_61_">
		<circle id="XMLID_9_" class="st5" cx="20.5" cy="28.3" r="2.4"/>
	</g>
	<g id="XMLID_58_">
		<path id="XMLID_31_" class="st4" d="M20.5,31.2c-1.6,0-3-1.3-3-3s1.3-3,3-3c1.6,0,3,1.3,3,3S22.2,31.2,20.5,31.2z M20.5,26.5
			c-1,0-1.8,0.8-1.8,1.8c0,1,0.8,1.8,1.8,1.8c1,0,1.8-0.8,1.8-1.8C22.3,27.3,21.5,26.5,20.5,26.5z"/>
	</g>
</g>
<g id="XMLID_56_">
	<circle id="XMLID_8_" class="st4" cx="20.5" cy="28.3" r="1.2"/>
</g>
<g id="XMLID_55_">
	<circle id="XMLID_7_" class="st3" cx="20" cy="27.7" r="0.8"/>
</g>
<g id="XMLID_54_">
	<circle id="XMLID_1_" class="st5" cx="29.2" cy="28.3" r="2.4"/>
	<path id="XMLID_2_" class="st4" d="M29.2,31.2c-1.6,0-3-1.3-3-3s1.3-3,3-3c1.6,0,3,1.3,3,3S30.9,31.2,29.2,31.2z M29.2,26.5
		c-1,0-1.8,0.8-1.8,1.8c0,1,0.8,1.8,1.8,1.8c1,0,1.8-0.8,1.8-1.8C31,27.3,30.2,26.5,29.2,26.5z"/>
</g>
<g id="XMLID_53_">
	<circle id="XMLID_6_" class="st4" cx="29.2" cy="28.3" r="1.2"/>
</g>
<g id="XMLID_52_">
	<circle id="XMLID_5_" class="st3" cx="28.7" cy="27.7" r="0.8"/>
</g>
</svg>
