<?xml version="1.0" encoding="utf-8"?>
<!-- Generator: Adobe Illustrator 19.0.0, SVG Export Plug-In . SVG Version: 6.00 Build 0)  -->
<svg version="1.1" id="Layer_1" xmlns="http://www.w3.org/2000/svg" xmlns:xlink="http://www.w3.org/1999/xlink" x="0px" y="0px"
	 viewBox="0 0 289.4 140.9" style="enable-background:new 0 0 289.4 140.9;" xml:space="preserve">
<style type="text/css">
	.st0{fill:#BCC8CF;}
</style>
<g id="XMLID_170_">
	<path id="XMLID_61_" class="st0" d="M146,91.5c-21.8,0-39.5-17.7-39.5-39.5V24.5c0-6.6,5.4-12,12-12s12,5.4,12,12V52
		c0,8.6,7,15.5,15.5,15.5s15.5-7,15.5-15.5V24.5c0-6.6,5.4-12,12-12s12,5.4,12,12V52C185.5,73.8,167.7,91.5,146,91.5z"/>
</g>
<path id="XMLID_65_" class="st0" d="M53.3,12.5c-19.8,0-36.3,14.7-39.1,33.7c-0.3,1-0.4,2-0.4,3.1v67.4c0,6.6,5.4,12,12,12
	s12-5.4,12-12V88.3c4.8,2,10,3.2,15.5,3.2c21.8,0,39.5-17.7,39.5-39.5S75.1,12.5,53.3,12.5z M53.3,67.5c-8.6,0-15.5-7-15.5-15.5
	s7-15.5,15.5-15.5s15.5,7,15.5,15.5S61.9,67.5,53.3,67.5z"/>
<path id="XMLID_60_" class="st0" d="M238.2,12.5c-20.6,0-37.5,15.8-39.3,35.9c-0.1,0.6-0.2,1.3-0.2,1.9v66.4c0,6.6,5.4,12,12,12
	s12-5.4,12-12V88.3c4.8,2,10,3.2,15.5,3.2c21.8,0,39.5-17.7,39.5-39.5S260,12.5,238.2,12.5z M238.2,67.5c-8.6,0-15.5-7-15.5-15.5
	s7-15.5,15.5-15.5s15.5,7,15.5,15.5S246.8,67.5,238.2,67.5z"/>
</svg>
