<?xml version="1.0" encoding="utf-8"?>
<!-- Generator: Adobe Illustrator 19.0.0, SVG Export Plug-In . SVG Version: 6.00 Build 0)  -->
<svg version="1.1" id="Layer_1" xmlns="http://www.w3.org/2000/svg" xmlns:xlink="http://www.w3.org/1999/xlink" x="0px" y="0px"
	 viewBox="0 0 50 50" style="enable-background:new 0 0 50 50;" xml:space="preserve">
<style type="text/css">
	.st0{fill:#FFFFFF;}
</style>
<g id="XMLID_1_">
	<path id="XMLID_19_" class="st0" d="M32.9,43.7H18.1c-2.4,0-4.4-1.4-5.3-3.5c-0.9-2.2-0.4-4.6,1.2-6.2l7.4-7.4
		c2.2-2.2,5.9-2.2,8.1,0l7.4,7.4c1.7,1.7,2.1,4.1,1.2,6.2C37.3,42.4,35.3,43.7,32.9,43.7z M25.5,28c-0.7,0-1.4,0.3-1.9,0.8l-7.4,7.4
		c-0.8,0.8-1,1.9-0.6,2.9c0.4,1,1.3,1.6,2.4,1.6h14.8c1.1,0,2-0.6,2.4-1.6c0.4-1,0.2-2.1-0.6-2.9l-7.4-7.4
		C26.9,28.2,26.2,28,25.5,28z"/>
</g>
<g id="XMLID_2_">
	<path id="XMLID_16_" class="st0" d="M8,33.2c-3.3,0-6-2.7-6-6c0-3.3,2.7-6,6-6s6,2.7,6,6C14,30.5,11.3,33.2,8,33.2z M8,24.3
		c-1.6,0-2.9,1.3-2.9,2.9s1.3,2.9,2.9,2.9s2.9-1.3,2.9-2.9S9.6,24.3,8,24.3z"/>
</g>
<g id="XMLID_4_">
	<path id="XMLID_13_" class="st0" d="M17.2,21.4c-3.7,0-6.7-3-6.7-6.7c0-3.7,3-6.7,6.7-6.7c3.7,0,6.7,3,6.7,6.7
		C23.9,18.4,20.9,21.4,17.2,21.4z M17.2,11c-2,0-3.6,1.6-3.6,3.6c0,2,1.6,3.6,3.6,3.6c2,0,3.6-1.6,3.6-3.6
		C20.8,12.7,19.2,11,17.2,11z"/>
</g>
<g id="XMLID_5_">
	<path id="XMLID_10_" class="st0" d="M43,33.2c-3.3,0-6-2.7-6-6c0-3.3,2.7-6,6-6c3.3,0,6,2.7,6,6C49,30.5,46.3,33.2,43,33.2z
		 M43,24.3c-1.6,0-2.9,1.3-2.9,2.9s1.3,2.9,2.9,2.9c1.6,0,2.9-1.3,2.9-2.9S44.6,24.3,43,24.3z"/>
</g>
<g id="XMLID_3_">
	<path id="XMLID_7_" class="st0" d="M33.8,21.4c-3.7,0-6.7-3-6.7-6.7c0-3.7,3-6.7,6.7-6.7c3.7,0,6.7,3,6.7,6.7
		C40.5,18.4,37.5,21.4,33.8,21.4z M33.8,11c-2,0-3.6,1.6-3.6,3.6c0,2,1.6,3.6,3.6,3.6s3.6-1.6,3.6-3.6C37.4,12.7,35.8,11,33.8,11z"
		/>
</g>
</svg>
